# Blender 3.5.1
# www.blender.org
mtllib farm.mtl
o plane
v 0.500000 0.000000 0.500000
v 0.500000 -0.000000 -0.500000
v -0.500000 0.000000 0.500000
v -0.500000 -0.000000 -0.500000
v 0.012629 0.019455 0.010344
v 0.401807 0.045483 0.281795
v -0.015772 0.094502 0.327631
v -0.419466 0.238327 -0.012056
v -0.147536 0.113140 -0.394170
v 0.308379 0.123934 -0.072066
v 0.020224 0.417178 0.271547
v -0.323632 0.411941 0.264955
v -0.291672 0.380071 -0.073958
v 0.070247 0.422221 -0.356605
v 0.452842 0.282516 -0.017193
v 0.005013 0.549788 -0.015600
vn -0.0000 1.0000 -0.0000
vn -0.0897 -0.9710 0.2216
vn 0.2521 -0.9286 -0.2724
vn -0.4524 -0.8761 0.1667
vn -0.4505 -0.8923 -0.0283
vn 0.2394 -0.9207 -0.3080
vn 0.7523 -0.5727 -0.3256
vn 0.1259 0.1562 0.9797
vn -0.6504 -0.5218 0.5520
vn -0.6996 0.3616 -0.6163
vn 0.5556 -0.2971 -0.7765
vn 0.5657 0.5964 0.5694
vn -0.0215 0.1735 0.9846
vn -0.7641 0.6315 -0.1314
vn -0.5729 0.4841 -0.6614
vn 0.5835 -0.2661 -0.7673
vn 0.4817 0.8050 0.3463
vn -0.0219 0.9072 0.4201
vn -0.4737 0.8716 -0.1266
vn -0.3992 0.8311 -0.3873
vn 0.4996 0.8384 -0.2181
vt 0.518575 0.000000
vt 0.518575 1.000000
vt 0.000000 0.000000
vt 0.000000 1.000000
vt 0.181819 0.000000
vt 0.672660 0.018602
vt 0.909091 0.000000
vt 0.727273 0.000000
vt 0.854478 0.018602
vt 0.272728 0.157461
vt 0.581751 0.176063
vt 0.946072 0.641122
vt 0.624038 0.306280
vt 0.090910 0.157461
vt 1.000000 0.157461
vt 0.764254 0.641122
vt 0.818182 0.157461
vt 0.945387 0.176063
vt 0.987674 0.306280
vt 0.636364 0.157461
vt 0.763569 0.176063
vt 0.805856 0.306280
vt 0.533129 0.463740
vt 0.855163 0.798582
vt 0.673344 0.798582
vt 0.909091 0.314921
vt 0.727273 0.314921
vt 0.545455 0.314921
vt 0.896765 0.463740
vt 0.714947 0.463740
vt 0.624038 0.621201
vt 0.764254 0.956043
vt 0.818182 0.472382
vt 0.636364 0.472382
vt 0.805856 0.621201
s 0
usemtl m_7e7f48d1-3e73-ceb1-8d09-451798a0b470
f 1/1/1 2/2/1 4/4/1 3/3/1
f 5/5/2 6/10/2 7/14/2
f 6/11/3 5/6/3 10/21/3
f 5/7/4 7/15/4 8/17/4
f 5/8/5 8/17/5 9/20/5
f 5/9/6 9/18/6 10/21/6
f 6/13/7 10/22/7 15/30/7
f 7/16/8 6/12/8 11/24/8
f 8/17/9 7/15/9 12/26/9
f 9/20/10 8/17/10 13/27/10
f 10/22/11 9/19/11 14/29/11
f 6/13/12 15/30/12 11/23/12
f 7/16/13 11/24/13 12/25/13
f 8/17/14 12/26/14 13/27/14
f 9/20/15 13/27/15 14/28/15
f 10/22/16 14/29/16 15/30/16
f 11/23/17 15/30/17 16/31/17
f 12/25/18 11/24/18 16/32/18
f 13/27/19 12/26/19 16/33/19
f 14/28/20 13/27/20 16/34/20
f 15/30/21 14/29/21 16/35/21
